<svg width="20" height="20" viewBox="0 0 20 20" fill="none" xmlns="http://www.w3.org/2000/svg">
  <path d="M9.08337 5.41667H10.9167V7.25H9.08337V5.41667ZM9.08337 9.08334H10.9167V14.5833H9.08337V9.08334ZM10 0.833336C4.94004 0.833336 0.833374 4.94 0.833374 10C0.833374 15.06 4.94004 19.1667 10 19.1667C15.06 19.1667 19.1667 15.06 19.1667 10C19.1667 4.94 15.06 0.833336 10 0.833336ZM10 17.3333C5.95754 17.3333 2.66671 14.0425 2.66671 10C2.66671 5.9575 5.95754 2.66667 10 2.66667C14.0425 2.66667 17.3334 5.9575 17.3334 10C17.3334 14.0425 14.0425 17.3333 10 17.3333Z" fill="#0288D1"/>
</svg>
