<svg width="20" height="18" viewBox="0 0 20 18" fill="none" xmlns="http://www.w3.org/2000/svg">
<path d="M19.1668 9L17.1335 6.675L17.4168 3.6L14.4085 2.91667L12.8335 0.25L10.0002 1.46667L7.16683 0.25L5.59183 2.90833L2.5835 3.58333L2.86683 6.66667L0.833496 9L2.86683 11.325L2.5835 14.4083L5.59183 15.0917L7.16683 17.75L10.0002 16.525L12.8335 17.7417L14.4085 15.0833L17.4168 14.4L17.1335 11.325L19.1668 9ZM7.81683 12.3417L5.8335 10.3417C5.5085 10.0167 5.5085 9.49167 5.8335 9.16667L5.89183 9.10833C6.21683 8.78333 6.75016 8.78333 7.07516 9.10833L8.41683 10.4583L12.7085 6.15833C13.0335 5.83333 13.5668 5.83333 13.8918 6.15833L13.9502 6.21667C14.2752 6.54167 14.2752 7.06667 13.9502 7.39167L9.01683 12.3417C8.67516 12.6667 8.15016 12.6667 7.81683 12.3417Z" fill="#1E88E5"/>
</svg>
